<svg width="48" height="48" viewBox="0 0 48 48" fill="none" xmlns="http://www.w3.org/2000/svg">
<g clip-path="url(#clip0)">
<path d="M28.0519 27.7356L21.294 25.7191L19.7875 30.7769L26.5454 32.7888C27.2162 32.9882 27.9386 32.9132 28.5541 32.5802C29.1695 32.2473 29.6276 31.6836 29.8276 31.0131C30.0256 30.343 29.9499 29.6218 29.6171 29.0074C29.2842 28.3931 28.7214 27.9357 28.0519 27.7356ZM30.5407 19.3625L23.7828 17.3696L22.2763 22.4228L29.0342 24.4393C29.5335 24.5866 30.0652 24.583 30.5625 24.429C31.0597 24.2749 31.5003 23.9773 31.8289 23.5735C32.1575 23.1698 32.3593 22.6779 32.4091 22.1597C32.4589 21.6415 32.3543 21.1202 32.1086 20.6612C31.9471 20.3511 31.7252 20.0765 31.4559 19.8534C31.1866 19.6304 30.8755 19.4635 30.5407 19.3625Z" fill="#F7931A"/>
<path d="M23.9998 0C19.253 0 14.6129 1.40758 10.6661 4.04473C6.7193 6.68188 3.64316 10.4302 1.82666 14.8156C0.0101546 19.201 -0.465125 24.0266 0.46092 28.6822C1.38697 33.3377 3.67274 37.6141 7.0292 40.9706C10.3857 44.327 14.6621 46.6128 19.3176 47.5388C23.9731 48.4649 28.7987 47.9896 33.1842 46.1731C37.5696 44.3566 41.3179 41.2805 43.955 37.3337C46.5922 33.3869 47.9998 28.7468 47.9998 24C47.9998 17.6348 45.4712 11.5303 40.9703 7.02944C36.4695 2.52856 30.365 0 23.9998 0V0ZM35.6125 23.6458C35.3776 24.4258 34.9887 25.1507 34.4687 25.7777C33.9488 26.4048 33.3084 26.9211 32.5854 27.2963C33.1087 28.2199 33.3808 29.2646 33.3746 30.3261C33.3684 31.3877 33.084 32.4291 32.5498 33.3465C32.0156 34.2639 31.2503 35.0252 30.3301 35.5546C29.41 36.084 28.3671 36.3629 27.3056 36.3636C26.7154 36.3628 26.1285 36.2769 25.5629 36.1086L24.6656 35.8394L23.6125 39.3908L20.4154 38.4463L21.4779 34.876L18.7294 34.0543L17.6668 37.6246L14.5499 36.68L13.7802 36.4486L14.7861 33.0578L11.008 31.9292L12.0801 28.3259L15.8581 29.4593L19.7589 16.3542L15.9809 15.2255L17.0529 11.6222L20.8309 12.7556L22.0399 8.70366L25.1568 9.64817L25.9266 9.87485L24.6751 14.0779L27.4142 14.8949L28.6656 10.6919L31.877 11.6364L30.6255 15.8394L31.5228 16.1039C33.066 16.5652 34.3632 17.6198 35.1299 19.0364C35.8966 20.4529 36.0702 22.1157 35.6125 23.66V23.6458Z" fill="#F7931A"/>
</g>
<defs>
<clipPath id="clip0">
<rect width="48" height="48" fill="white"/>
</clipPath>
</defs>
</svg>
